<?xml version="1.0" encoding="iso-8859-1"?>
<!-- Uploaded to: SVG Repo, www.svgrepo.com, Generator: SVG Repo Mixer Tools -->
<svg fill="#000000" height="800px" width="800px" version="1.1" id="Capa_1" xmlns="http://www.w3.org/2000/svg" xmlns:xlink="http://www.w3.org/1999/xlink" 
	 viewBox="0 0 490 490" xml:space="preserve">
<path id="XMLID_8_" d="M475,60H15C6.716,60,0,66.716,0,75v340c0,8.284,6.716,15,15,15h460c8.284,0,15-6.716,15-15V75
	C490,66.716,483.284,60,475,60z M460,400h-30.873c1.864-5.278,0.701-11.385-3.521-15.606c-5.857-5.858-15.355-5.858-21.213,0
	L388.787,400h-39.66c1.864-5.278,0.701-11.385-3.521-15.606c-5.857-5.858-15.355-5.858-21.213,0L308.787,400h-39.66
	c1.864-5.278,0.701-11.385-3.521-15.606c-5.857-5.858-15.355-5.858-21.213,0L228.787,400h-39.66
	c1.864-5.278,0.701-11.385-3.521-15.606c-5.857-5.858-15.355-5.858-21.213,0L148.787,400h-39.66
	c1.864-5.278,0.701-11.385-3.521-15.606c-5.857-5.858-15.355-5.858-21.213,0L68.787,400H30V90h30.873
	c-1.864,5.278-0.701,11.385,3.521,15.606C67.322,108.536,71.161,110,75,110s7.678-1.464,10.606-4.394L101.213,90h39.66
	c-1.864,5.278-0.701,11.385,3.521,15.606C147.322,108.536,151.161,110,155,110s7.678-1.464,10.606-4.394L181.213,90h39.66
	c-1.864,5.278-0.701,11.385,3.521,15.606C227.322,108.536,231.161,110,235,110s7.678-1.464,10.606-4.394L261.213,90h39.66
	c-1.864,5.278-0.701,11.385,3.521,15.606C307.322,108.536,311.161,110,315,110s7.678-1.464,10.606-4.394L341.213,90h39.66
	c-1.864,5.278-0.701,11.385,3.521,15.606C387.322,108.536,391.161,110,395,110s7.678-1.464,10.606-4.394L421.213,90H460V400z
	 M352.479,159.98c-12.365,0-24.165,3.685-34.188,10.542c-10.023-6.858-21.823-10.542-34.188-10.542c-0.001,0,0,0-0.001,0
	c-12.038,0-23.534,3.506-33.384,10.02H105c-8.284,0-15,6.716-15,15s6.716,15,15,15h121.845c-3.593,9.598-4.771,19.922-3.534,30
	h-72.125c-8.284,0-15,6.716-15,15s6.716,15,15,15h84.188c1.604,2.13,3.344,4.186,5.256,6.135L264.035,290h-52.849
	c-8.284,0-15,6.716-15,15s6.716,15,15,15h82.308c6.721,6.465,15.479,10.02,24.795,10.02c9.677,0,18.758-3.826,25.572-10.774
	l52.089-53.111c23.746-24.212,23.746-63.608,0-87.82C384.355,166.491,368.917,159.98,352.479,159.98z M374.534,245.127
	l-52.09,53.112c-1.443,1.472-3.056,1.78-4.154,1.78s-2.711-0.309-4.154-1.78l-52.089-53.111c-12.386-12.629-12.386-33.179,0-45.808
	c5.908-6.024,13.74-9.341,22.056-9.341c8.314,0,16.146,3.317,22.055,9.341c0.326,0.333,0.642,0.672,0.95,1.016
	c2.004,2.226,4.955,4.961,11.61,4.961c4.116,0,8.003-1.902,10.756-4.961c0.309-0.343,0.623-0.683,0.95-1.017
	c5.907-6.023,13.74-9.34,22.055-9.34s16.147,3.317,22.055,9.34C386.919,211.95,386.919,232.499,374.534,245.127z"/>
</svg>